<?xml version="1.0" encoding="iso-8859-1"?>
<!-- Generator: Adobe Illustrator 19.0.0, SVG Export Plug-In . SVG Version: 6.00 Build 0)  -->
<svg version="1.1" id="Capa_1" xmlns="http://www.w3.org/2000/svg" xmlns:xlink="http://www.w3.org/1999/xlink" x="0px" y="0px"
	 viewBox="0 0 512 512" style="enable-background:new 0 0 512 512;" xml:space="preserve" fill="white">
<g>
	<g>
		<path d="M235.232,179.978c-8.277,0-15.001,6.724-15.001,15.001s6.724,15.001,15.001,15.001s15.001-6.724,15.001-15.001
			S243.508,179.978,235.232,179.978z"/>
	</g>
</g>
<g>
	<g>
		<path d="M319.729,179.978c-6.343,0-12.013-3.999-14.137-9.977c-3.018-8.512-7.589-16.393-13.58-23.425
			c-4.116-4.834-4.731-11.734-1.567-17.228l10.284-17.799l-25.988-15.001l-10.152,17.579c-3.179,5.493-9.493,8.351-15.719,7.251
			c-8.878-1.641-18.399-1.641-27.277,0c-6.255,1.172-12.54-1.743-15.719-7.251l-10.152-17.579l-25.988,15.001l10.284,17.799
			c3.164,5.493,2.549,12.394-1.567,17.228c-5.991,7.031-10.563,14.913-13.58,23.425c-2.124,5.977-7.794,9.977-14.137,9.977h-20.509
			v30.002h20.509c6.343,0,12.013,3.999,14.137,9.977c3.018,8.512,7.589,16.393,13.58,23.425c4.116,4.834,4.731,11.734,1.567,17.228
			l-10.284,17.799l25.988,15.001l10.152-17.579c3.164-5.493,9.391-8.439,15.719-7.251c8.878,1.641,18.399,1.641,27.277,0
			c0.908-0.161,1.831-0.249,2.725-0.249c5.288,0,10.284,2.798,12.994,7.5l10.152,17.579l25.988-15.001l-10.284-17.799
			c-3.164-5.493-2.549-12.394,1.567-17.228c5.991-7.031,10.563-14.913,13.58-23.425c2.124-5.977,7.794-9.977,14.137-9.977h20.509
			v-30.002H319.729z M235.232,239.982c-24.816,0-45.003-20.187-45.003-45.003c0-24.816,20.187-45.003,45.003-45.003
			c24.816,0,45.003,20.187,45.003,45.003C280.235,219.794,260.047,239.982,235.232,239.982z"/>
	</g>
</g>
<g>
	<g>
		<path d="M466.956,264.856l-36.742-73.482c-1.011-54.218-24.655-105.798-65.219-141.982c-41.458-36.945-97.11-54.51-152.763-48.093
			c-86.828,9.947-158.39,79.912-170.153,166.373c-6.27,46.116,3.706,92.54,28.142,131.274v198.053
			c0,8.292,6.709,15.001,15.001,15.001h210.014c8.292,0,15.001-6.709,15.001-15.001v-47.003h48.519
			c22.648,0,41.854-16.949,44.651-39.422l10.079-80.586h13.214c15.719,0,30.031-7.984,38.294-21.344
			C473.24,295.283,473.987,278.905,466.956,264.856z M370.241,224.981c0,8.292-6.709,15.001-15.001,15.001h-25.52
			c-2.373,4.966-5.142,9.742-8.292,14.298l12.789,22.12c1.992,3.442,2.52,7.544,1.494,11.383s-3.545,7.119-6.987,9.112
			l-51.976,30.002c-7.07,4.083-16.307,1.76-20.494-5.493l-12.599-21.813c-5.537,0.498-11.31,0.498-16.847,0l-12.599,21.813
			c-4.146,7.163-13.36,9.596-20.494,5.493l-51.976-30.002c-7.229-4.184-9.59-13.417-5.493-20.494l12.789-22.12
			c-3.149-4.556-5.918-9.332-8.292-14.298h-25.52c-8.292,0-15.001-6.709-15.001-15.001v-60.004c0-8.292,6.709-15.001,15.001-15.001
			h25.52c2.373-4.966,5.142-9.742,8.292-14.298l-12.789-22.12c-1.992-3.442-2.52-7.544-1.494-11.383
			c1.026-3.838,3.545-7.12,6.987-9.112l51.976-30.002c7.134-4.16,16.349-1.699,20.494,5.493l12.599,21.813
			c5.537-0.498,11.31-0.498,16.847,0l12.599-21.813c4.146-7.178,13.316-9.654,20.494-5.493l51.976,30.002
			c3.442,1.992,5.962,5.273,6.987,9.112c1.025,3.838,0.498,7.94-1.494,11.383l-12.789,22.12c3.149,4.556,5.918,9.332,8.292,14.298
			h25.52c8.292,0,15.001,6.709,15.001,15.001V224.981z"/>
	</g>
</g>
<g>
</g>
<g>
</g>
<g>
</g>
<g>
</g>
<g>
</g>
<g>
</g>
<g>
</g>
<g>
</g>
<g>
</g>
<g>
</g>
<g>
</g>
<g>
</g>
<g>
</g>
<g>
</g>
<g>
</g>
</svg>
